<?xml version="1.0" encoding="UTF-8"?>
<svg version="1.1" xmlns="http://www.w3.org/2000/svg" width="128" height="109">
<path d="M0 0 C0.9977243 -0.01328842 1.99544861 -0.02657684 3.02340698 -0.04026794 C6.30898072 -0.07883524 9.59411139 -0.094541 12.87988281 -0.10668945 C15.17523288 -0.12141973 17.470582 -0.13629935 19.76593018 -0.15132141 C24.57412523 -0.17828125 29.38216607 -0.19185338 34.19042969 -0.19824219 C40.33182932 -0.2091042 46.47158302 -0.27080355 52.61249924 -0.34495831 C57.35338772 -0.39348378 62.09388353 -0.4057742 66.83499908 -0.40830421 C69.09793408 -0.41550697 71.36086903 -0.43587359 73.62355804 -0.47000694 C94.93217577 -0.76688684 94.93217577 -0.76688684 103.06036377 6.358078 C106.80557785 10.81489308 107.18247361 14.5136878 107.13769531 20.2097168 C107.13381805 21.02366913 107.1299408 21.83762146 107.12594604 22.67623901 C106.91420877 35.64018125 105.44718399 48.55838413 104.16821289 61.45196533 C103.88617322 64.32403656 103.61513962 67.19710378 103.34417915 70.07023811 C103.07915252 72.86925862 102.80840604 75.6677027 102.53585434 78.4659996 C102.34615551 80.42037579 102.16022104 82.37511621 101.97439575 84.3298645 C101.63569107 87.71568877 101.25217657 91.09081444 100.83300781 94.4675293 C100.73630798 95.34407166 100.63960815 96.22061401 100.53997803 97.12371826 C99.72755301 102.35805851 97.98963304 104.90417724 93.90201759 108.2188015 C90.3027363 110.39110761 86.88408143 110.32095295 82.76757812 110.27563477 C81.88689667 110.28936127 81.00621521 110.30308777 80.09884644 110.31723022 C77.20227599 110.35367816 74.30788225 110.34610462 71.41113281 110.3347168 C69.38481956 110.34384734 67.3585125 110.35446054 65.33221436 110.3664856 C61.08873314 110.38433198 56.84600492 110.37952407 52.60253906 110.35961914 C47.18727227 110.33668256 41.7746223 110.37699605 36.35969925 110.43545341 C32.17457797 110.47231159 27.99007548 110.47156587 23.80483246 110.46017838 C21.80988656 110.45987334 19.81489685 110.47184716 17.82010651 110.49676132 C-1.50309558 110.70404983 -1.50309558 110.70404983 -9.26231384 103.7520752 C-12.30357862 100.10426296 -13.47311423 97.14229555 -14.16699219 92.4675293 C-14.33097504 91.37527039 -14.49495789 90.28301147 -14.66390991 89.15765381 C-15.18285243 85.19169921 -15.5994621 81.22089665 -15.99121094 77.2409668 C-16.14318904 75.76511782 -16.29585647 74.28933969 -16.44917297 72.81362915 C-16.76730679 69.72964552 -17.07834133 66.64505559 -17.3840332 63.55981445 C-17.77191117 59.649049 -18.17551606 55.74010952 -18.58436871 51.83148766 C-18.90159826 48.78444835 -19.21117979 45.73666758 -19.51853371 42.68861771 C-19.66435898 41.24943575 -19.81220981 39.81045725 -19.96231651 38.37171555 C-20.72208794 31.04243501 -21.32754863 23.70919643 -21.50610352 16.34106445 C-21.53964432 15.16307281 -21.57318512 13.98508118 -21.60774231 12.77139282 C-21.05266001 8.61049515 -19.93010843 6.62127345 -17.16699219 3.4675293 C-11.54683069 0.13686029 -6.42705334 0.01231836 0 0 Z M40.03173828 6.50561523 C33.96323206 6.53650729 27.89511244 6.58651139 21.82690907 6.65464592 C18.49932451 6.69186991 15.17202761 6.72091756 11.8442688 6.73797607 C8.0900365 6.75914551 4.33691352 6.80553533 0.58300781 6.8581543 C-1.11258018 6.86001236 -1.11258018 6.86001236 -2.84242249 6.86190796 C-4.40300636 6.89147079 -4.40300636 6.89147079 -5.99511719 6.92163086 C-7.35491699 6.93495453 -7.35491699 6.93495453 -8.7421875 6.94854736 C-11.9563651 7.6364791 -13.1738717 8.89752616 -15.16699219 11.4675293 C-15.37137333 14.22192842 -15.3363692 16.47918198 -15.06933594 19.1940918 C-15.00874496 19.97507233 -14.94815399 20.75605286 -14.88572693 21.56069946 C-14.67165267 24.19918916 -14.42193727 26.83268854 -14.16699219 29.4675293 C-14.08024231 30.41221069 -13.99349243 31.35689209 -13.90411377 32.3302002 C-13.3396671 38.45431347 -12.71922074 44.57112194 -12.06518555 50.6862793 C-11.72487666 53.88592537 -11.39786472 57.08676813 -11.07128906 60.2878418 C-10.85529008 62.33480115 -10.63852251 64.38167958 -10.42089844 66.4284668 C-10.32498917 67.3794223 -10.2290799 68.33037781 -10.13026428 69.31015015 C-10.03353928 70.19272491 -9.93681427 71.07529968 -9.8371582 71.98461914 C-9.75579117 72.75639496 -9.67442413 73.52817078 -9.59059143 74.32333374 C-9.1323267 76.64300078 -8.31344899 78.40963651 -7.16699219 80.4675293 C-6.67199219 79.9725293 -6.67199219 79.9725293 -6.16699219 79.4675293 C-4.60526474 79.38067327 -3.03969874 79.3605071 -1.47558594 79.36987305 C-0.53134766 79.3730957 0.41289062 79.37631836 1.38574219 79.37963867 C2.37896484 79.38801758 3.3721875 79.39639648 4.39550781 79.4050293 C5.39259766 79.40954102 6.3896875 79.41405273 7.41699219 79.41870117 C9.8890563 79.43052923 12.36100299 79.4470108 14.83300781 79.4675293 C14.83300781 81.1175293 14.83300781 82.7675293 14.83300781 84.4675293 C12.57044916 85.59880862 11.31512872 85.59643515 8.80566406 85.6003418 C8.01353516 85.60163086 7.22140625 85.60291992 6.40527344 85.60424805 C5.57705078 85.60038086 4.74882812 85.59651367 3.89550781 85.5925293 C3.07115234 85.59639648 2.24679688 85.60026367 1.39746094 85.60424805 C0.60404297 85.60295898 -0.189375 85.60166992 -1.00683594 85.6003418 C-1.73249756 85.59921387 -2.45815918 85.59808594 -3.20581055 85.59692383 C-5.16699219 85.4675293 -5.16699219 85.4675293 -8.16699219 84.4675293 C-8.07975841 86.23927749 -7.97157563 88.01000307 -7.85449219 89.7800293 C-7.79648438 90.76616211 -7.73847656 91.75229492 -7.67871094 92.76831055 C-7.11366079 95.74884224 -6.53888151 96.65786559 -4.16699219 98.4675293 C-1.02586807 100.03809135 2.33428812 99.62371746 5.78344727 99.62866211 C7.0154184 99.63610947 7.0154184 99.63610947 8.27227783 99.64370728 C10.99695669 99.65834542 13.7215773 99.665134 16.44628906 99.6706543 C18.33717348 99.67640484 20.22805788 99.68216259 22.11894226 99.68792725 C26.08767977 99.69844225 30.056397 99.70428149 34.02514648 99.70776367 C39.10958298 99.71324631 44.19375138 99.73726731 49.27810383 99.76573563 C53.18575319 99.78436463 57.09333805 99.78956777 61.00102806 99.79109955 C62.8753118 99.79412653 64.7495944 99.80215661 66.62383461 99.81528473 C69.24755826 99.83234905 71.87062806 99.83046399 74.49438477 99.82397461 C75.65492622 99.83779678 75.65492622 99.83779678 76.83891296 99.85189819 C81.33723679 99.81706458 84.26653202 99.277331 87.83300781 96.4675293 C88.70598728 94.55615276 88.70598728 94.55615276 88.80175781 92.31518555 C88.89545654 91.41840088 88.98915527 90.52161621 89.08569336 89.59765625 C89.16730713 88.58533936 89.2489209 87.57302246 89.33300781 86.5300293 C89.43846924 85.45132568 89.54393066 84.37262207 89.65258789 83.26123047 C89.90578505 80.6423145 90.14911224 78.02374199 90.38232422 75.40307617 C90.92180408 69.40482343 91.52790624 63.41329359 92.12597656 57.4206543 C93.04409564 48.15227579 93.95865241 38.88356262 94.84472656 29.61206055 C94.99448189 28.08364532 94.99448189 28.08364532 95.14726257 26.52435303 C96.62239701 16.61364429 96.62239701 16.61364429 93.83300781 7.4675293 C90.74030431 5.92117755 87.48083886 6.3260028 84.08691406 6.3347168 C83.27262436 6.33321625 82.45833466 6.3317157 81.61936951 6.33016968 C78.87803581 6.3277716 76.13682904 6.33418523 73.39550781 6.3425293 C71.98096313 6.34585266 71.98096313 6.34585266 70.5378418 6.34924316 C64.17235269 6.36650749 57.80707775 6.40218764 51.44171143 6.44470215 C47.63839963 6.46876031 43.83508148 6.48723622 40.03173828 6.50561523 Z " fill="#F8D62C" transform="translate(21.1669921875,-0.467529296875)"/>
<path d="M0 0 C3.15911384 2.56473242 4.82946081 3.99840041 5.5234375 8.07421875 C5.44996094 9.86279297 5.44996094 9.86279297 5.375 11.6875 C5.35356934 12.35378418 5.33213867 13.02006836 5.31005859 13.70654297 C5.25739727 15.23983697 5.192872 16.77275045 5.11914062 18.30517578 C4.98187165 21.41004257 4.90419571 24.51413598 4.828125 27.62109375 C4.76199228 29.95577433 4.69428144 32.29041074 4.625 34.625 C4.5945459 35.75123779 4.5640918 36.87747559 4.53271484 38.0378418 C4.06192461 50.93807539 4.06192461 50.93807539 1 54 C-1.4375 54.1875 -1.4375 54.1875 -4 54 C-6 52 -6 52 -6.20254517 50.16500854 C-6.18033905 49.42332428 -6.15813293 48.68164001 -6.13525391 47.91748047 C-6.11508209 47.07675995 -6.09491028 46.23603943 -6.0741272 45.36984253 C-6.04193085 44.46146637 -6.0097345 43.55309021 -5.9765625 42.6171875 C-5.95153656 41.68778351 -5.92651062 40.75837952 -5.90072632 39.80081177 C-5.81839355 36.82517739 -5.72185562 33.85019369 -5.625 30.875 C-5.566774 28.86070387 -5.50947044 26.84638086 -5.453125 24.83203125 C-5.31279498 19.88764495 -5.15972168 14.94379634 -5 10 C-16.47587415 18.07694528 -16.47587415 18.07694528 -27.89453125 26.234375 C-28.72404297 26.82734375 -29.55355469 27.4203125 -30.40820312 28.03125 C-32.06686588 29.21697155 -33.7202117 30.41015396 -35.36914062 31.609375 C-36.18189453 32.186875 -36.99464844 32.764375 -37.83203125 33.359375 C-38.54077393 33.86952148 -39.2495166 34.37966797 -39.97973633 34.90527344 C-42 36 -42 36 -46 36 C-47.56811523 34.64233398 -47.56811523 34.64233398 -49.05859375 32.74609375 C-49.60966797 32.05580078 -50.16074219 31.36550781 -50.72851562 30.65429688 C-51.29248047 29.92275391 -51.85644531 29.19121094 -52.4375 28.4375 C-52.99759766 27.73302734 -53.55769531 27.02855469 -54.13476562 26.30273438 C-57.56245159 21.96313196 -60.81989009 17.52348344 -64 13 C-67.70443678 21.85107874 -70.75611145 30.91400828 -73.79638672 40.00830078 C-74.44505001 41.9448142 -75.10091734 43.87876625 -75.7578125 45.8125 C-76.1408252 46.95332031 -76.52383789 48.09414063 -76.91845703 49.26953125 C-78 52 -78 52 -80 54 C-82.5 54.25 -82.5 54.25 -85 54 C-85.66 53.34 -86.32 52.68 -87 52 C-86.62883702 46.38548747 -84.97828955 41.24926602 -83.234375 35.92578125 C-82.8214621 34.65639961 -82.8214621 34.65639961 -82.40020752 33.3613739 C-81.81844568 31.58285041 -81.2333241 29.80542274 -80.64501953 28.02905273 C-79.75095331 25.31539347 -78.88120331 22.5946661 -78.01171875 19.87304688 C-77.44158623 18.1401367 -76.87002011 16.40769738 -76.296875 14.67578125 C-76.04145935 13.86530838 -75.7860437 13.05483551 -75.52288818 12.21980286 C-73.91470048 7.4709292 -72.47640443 4.68610691 -68 2 C-64.32606303 1.38767717 -62.71153902 1.51198722 -59.625 3.62890625 C-56.6688246 6.29914207 -54.34011432 9.23812495 -52 12.4375 C-48.91288573 16.62922235 -45.76896871 20.39928882 -42 24 C-40.9584375 23.26136719 -39.916875 22.52273437 -38.84375 21.76171875 C-31.31626293 16.4308177 -23.77521622 11.1199202 -16.1875 5.875 C-15.52492188 5.41440186 -14.86234375 4.95380371 -14.1796875 4.47924805 C-5.01365128 -1.83426266 -5.01365128 -1.83426266 0 0 Z " fill="#04DFFF" transform="translate(103,13)"/>
<path d="M0 0 C2.6684783 1.02633781 3.72332227 1.67146448 5.4375 3.9375 C5.8359375 6.71484375 5.8359375 6.71484375 5.8125 9.875 C5.82023437 10.91527344 5.82796875 11.95554687 5.8359375 13.02734375 C5.39328112 16.26047121 4.74151752 17.65511644 2.4375 19.9375 C-0.64267194 20.38669174 -2.59178333 20.5953033 -5.22265625 18.8125 C-7.18843157 16.06156078 -6.99620314 13.8450312 -7 10.5 C-7.01933594 9.36691406 -7.03867187 8.23382813 -7.05859375 7.06640625 C-6.3736549 2.74643758 -4.63792017 -0.11312 0 0 Z " fill="#04DEFF" transform="translate(47.5625,56.0625)"/>
<path d="M0 0 C2 2 2 2 2.265625 5.15234375 C2.26046875 6.40144531 2.2553125 7.65054688 2.25 8.9375 C2.25515625 10.18402344 2.2603125 11.43054688 2.265625 12.71484375 C2 16 2 16 0 19 C-1.8125 19.875 -1.8125 19.875 -4 20 C-6.6015625 18.9765625 -6.6015625 18.9765625 -9 17 C-9.49783561 14.25417375 -9.65863781 12.22823521 -9.5625 9.5 C-9.57345703 8.82324219 -9.58441406 8.14648438 -9.59570312 7.44921875 C-9.54744409 4.18690819 -9.40733364 2.43114437 -7.12890625 0.01953125 C-4.32112044 -1.3251148 -2.90753215 -0.99468205 0 0 Z " fill="#05DEFF" transform="translate(79,57)"/>
<path d="M0 0 C1.40958984 -0.00193359 1.40958984 -0.00193359 2.84765625 -0.00390625 C3.83636719 -0.00003906 4.82507813 0.00382812 5.84375 0.0078125 C7.32681641 0.00201172 7.32681641 0.00201172 8.83984375 -0.00390625 C9.77957031 -0.00261719 10.71929687 -0.00132813 11.6875 0 C12.55568359 0.00112793 13.42386719 0.00225586 14.31835938 0.00341797 C16.34375 0.1328125 16.34375 0.1328125 17.34375 1.1328125 C17.59375 3.5703125 17.59375 3.5703125 17.34375 6.1328125 C14.29401315 8.1659704 13.65418132 8.3876633 10.21875 8.3984375 C9.42984375 8.40101562 8.6409375 8.40359375 7.828125 8.40625 C7.00828125 8.39851563 6.1884375 8.39078125 5.34375 8.3828125 C4.52390625 8.39054687 3.7040625 8.39828125 2.859375 8.40625 C2.07046875 8.40367188 1.2815625 8.40109375 0.46875 8.3984375 C-0.25054687 8.39618164 -0.96984375 8.39392578 -1.7109375 8.39160156 C-3.65625 8.1328125 -3.65625 8.1328125 -6.65625 6.1328125 C-5.68378166 0.71477462 -5.54114558 0.00719896 0 0 Z " fill="#03DFFF" transform="translate(91.65625,77.8671875)"/>
<path d="M0 0 C1.40958984 -0.00193359 1.40958984 -0.00193359 2.84765625 -0.00390625 C3.83636719 -0.00003906 4.82507813 0.00382812 5.84375 0.0078125 C7.32681641 0.00201172 7.32681641 0.00201172 8.83984375 -0.00390625 C9.77957031 -0.00261719 10.71929688 -0.00132813 11.6875 0 C12.55568359 0.00112793 13.42386719 0.00225586 14.31835938 0.00341797 C16.34375 0.1328125 16.34375 0.1328125 17.34375 1.1328125 C17.59375 3.5703125 17.59375 3.5703125 17.34375 6.1328125 C14.29401315 8.1659704 13.65418132 8.3876633 10.21875 8.3984375 C9.42984375 8.40101562 8.6409375 8.40359375 7.828125 8.40625 C7.00828125 8.39851563 6.1884375 8.39078125 5.34375 8.3828125 C4.52390625 8.39054687 3.7040625 8.39828125 2.859375 8.40625 C2.07046875 8.40367188 1.2815625 8.40109375 0.46875 8.3984375 C-0.25054688 8.39618164 -0.96984375 8.39392578 -1.7109375 8.39160156 C-3.65625 8.1328125 -3.65625 8.1328125 -6.65625 6.1328125 C-5.68378166 0.71477462 -5.54114558 0.00719896 0 0 Z " fill="#03DFFE" transform="translate(19.65625,77.8671875)"/>
<path d="M0 0 C0.88042969 -0.01224609 1.76085937 -0.02449219 2.66796875 -0.03710938 C3.50972656 -0.03904297 4.35148437 -0.04097656 5.21875 -0.04296875 C5.99154297 -0.04707764 6.76433594 -0.05118652 7.56054688 -0.05541992 C9.5 0.1875 9.5 0.1875 11.5 2.1875 C11.625 4.8125 11.625 4.8125 11.5 7.1875 C7.84657606 9.01421197 3.52160841 8.37220722 -0.5 8.375 C-1.428125 8.38724609 -2.35625 8.39949219 -3.3125 8.41210938 C-4.199375 8.41404297 -5.08625 8.41597656 -6 8.41796875 C-7.22203125 8.42413208 -7.22203125 8.42413208 -8.46875 8.43041992 C-10.5 8.1875 -10.5 8.1875 -12.5 6.1875 C-12.25 3.625 -12.25 3.625 -11.5 1.1875 C-7.9639604 -0.5805198 -3.89428745 0.00285087 0 0 Z " fill="#03DFFF" transform="translate(97.5,67.8125)"/>
<path d="M0 0 C1.39895508 -0.01836914 1.39895508 -0.01836914 2.82617188 -0.03710938 C4.16325195 -0.04000977 4.16325195 -0.04000977 5.52734375 -0.04296875 C6.348396 -0.04707764 7.16944824 -0.05118652 8.01538086 -0.05541992 C10.0625 0.1875 10.0625 0.1875 12.0625 2.1875 C11.50694444 6.74305556 11.50694444 6.74305556 10.0625 8.1875 C6.75733066 8.43785974 3.43853959 8.37271952 0.125 8.375 C-0.80763672 8.38724609 -1.74027344 8.39949219 -2.70117188 8.41210938 C-3.59255859 8.41404297 -4.48394531 8.41597656 -5.40234375 8.41796875 C-6.223396 8.42207764 -7.04444824 8.42618652 -7.89038086 8.43041992 C-9.9375 8.1875 -9.9375 8.1875 -11.9375 6.1875 C-10.98106887 -1.6552353 -6.84894087 0.00471366 0 0 Z " fill="#03DFFF" transform="translate(24.9375,67.8125)"/>
<path d="M0 0 C0.99 0 1.98 0 3 0 C3 1.98 3 3.96 3 6 C2.01 6 1.02 6 0 6 C0 4.02 0 2.04 0 0 Z " fill="#CFF8FF" transform="translate(76,60)"/>
<path d="M0 0 C0.99 0 1.98 0 3 0 C3 1.98 3 3.96 3 6 C2.01 6 1.02 6 0 6 C0 4.02 0 2.04 0 0 Z " fill="#D1F9FF" transform="translate(47,60)"/>
</svg>
